<svg width="45" height="45" viewBox="0 0 45 45" fill="none" xmlns="http://www.w3.org/2000/svg">
<path d="M40.7812 29.5312C39.9375 29.5312 39.375 30.0937 39.375 30.9375V35.1562H35.1562C34.3125 35.1562 33.75 35.7188 33.75 36.5625C33.75 37.4062 34.3125 37.9688 35.1562 37.9688H40.7812C41.625 37.9688 42.1875 37.4062 42.1875 36.5625V30.9375C42.1875 30.0937 41.625 29.5312 40.7812 29.5312Z" fill="#5D70D5"/>
<path d="M26.7188 35.1562H18.2812C17.4375 35.1562 16.875 35.7187 16.875 36.5625C16.875 37.4062 17.4375 37.9688 18.2812 37.9688H26.7188C27.5625 37.9688 28.125 37.4062 28.125 36.5625C28.125 35.7187 27.5625 35.1562 26.7188 35.1562Z" fill="#5D70D5"/>
<path d="M9.84375 35.1562H5.625V30.9375C5.625 30.0937 5.0625 29.5312 4.21875 29.5312C3.375 29.5312 2.8125 30.0937 2.8125 30.9375V36.5625C2.8125 37.4062 3.375 37.9688 4.21875 37.9688H9.84375C10.6875 37.9688 11.25 37.4062 11.25 36.5625C11.25 35.7188 10.6875 35.1562 9.84375 35.1562Z" fill="#5D70D5"/>
<path d="M4.21875 26.7188C5.0625 26.7188 5.625 26.1562 5.625 25.3125V19.6875C5.625 18.8437 5.0625 18.2812 4.21875 18.2812C3.375 18.2812 2.8125 18.8437 2.8125 19.6875V25.3125C2.8125 26.1562 3.375 26.7188 4.21875 26.7188Z" fill="#5D70D5"/>
<path d="M9.84375 7.03125H4.21875C3.375 7.03125 2.8125 7.59375 2.8125 8.4375V14.0625C2.8125 14.9062 3.375 15.4688 4.21875 15.4688C5.0625 15.4688 5.625 14.9062 5.625 14.0625V9.84375H9.84375C10.6875 9.84375 11.25 9.28125 11.25 8.4375C11.25 7.59375 10.6875 7.03125 9.84375 7.03125Z" fill="#5D70D5"/>
<path d="M26.7188 7.03125H18.2812C17.4375 7.03125 16.875 7.59375 16.875 8.4375C16.875 9.28125 17.4375 9.84375 18.2812 9.84375H26.7188C27.5625 9.84375 28.125 9.28125 28.125 8.4375C28.125 7.59375 27.5625 7.03125 26.7188 7.03125Z" fill="#5D70D5"/>
<path d="M40.7812 7.03125H35.1562C34.3125 7.03125 33.75 7.59375 33.75 8.4375C33.75 9.28125 34.3125 9.84375 35.1562 9.84375H39.375V14.0625C39.375 14.9062 39.9375 15.4688 40.7812 15.4688C41.625 15.4688 42.1875 14.9062 42.1875 14.0625V8.4375C42.1875 7.59375 41.625 7.03125 40.7812 7.03125Z" fill="#5D70D5"/>
<path d="M40.7812 18.2812C39.9375 18.2812 39.375 18.8437 39.375 19.6875V25.3125C39.375 26.1562 39.9375 26.7188 40.7812 26.7188C41.625 26.7188 42.1875 26.1562 42.1875 25.3125V19.6875C42.1875 18.8437 41.625 18.2812 40.7812 18.2812Z" fill="#5D70D5"/>
</svg>
