<svg width="44" height="45" viewBox="0 0 44 45" fill="none" xmlns="http://www.w3.org/2000/svg">
<g clip-path="url(#clip0_202_3221)">
<path fill-rule="evenodd" clip-rule="evenodd" d="M20.8421 0L8.10526 20.25H33.5789L20.8421 0ZM20.8421 8.64L25.3116 15.75H16.3495L20.8421 8.64ZM33.5789 24.75C27.8126 24.75 23.1579 29.2725 23.1579 34.875C23.1579 40.4775 27.8126 45 33.5789 45C39.3453 45 44 40.4775 44 34.875C44 29.2725 39.3453 24.75 33.5789 24.75ZM33.5789 40.5C30.3832 40.5 27.7895 37.98 27.7895 34.875C27.7895 31.77 30.3832 29.25 33.5789 29.25C36.7747 29.25 39.3684 31.77 39.3684 34.875C39.3684 37.98 36.7747 40.5 33.5789 40.5ZM0 43.875H18.5263V25.875H0V43.875ZM4.63158 30.375H13.8947V39.375H4.63158V30.375Z" fill="#5D70D5"/>
</g>
<defs>
<clipPath id="clip0_202_3221">
<rect width="44" height="45" fill="white"/>
</clipPath>
</defs>
</svg>
