<svg width="44" height="36" viewBox="0 0 44 36" fill="none" xmlns="http://www.w3.org/2000/svg">
<g clip-path="url(#clip0_202_3181)">
<path d="M29.3333 12.96V14.4H36.9879L37.6977 17.1878C34.6133 17.8402 31.834 18.6494 29.3333 19.5653V21.1435C31.9191 20.1528 34.8055 19.2758 38.0527 18.5861L38.9107 21.9528C36.2736 24.2597 32.6421 28.3219 30.2573 34.5586H19.6915C18.3612 32.7139 16.6907 31.2797 14.8764 30.1968C17.2216 27.8568 20.4864 25.3066 24.9333 23.0731V21.4186C19.7428 23.8939 16.0439 26.7984 13.4743 29.4422C9.94693 27.6941 6.21573 27.0346 3.85587 26.7912L4.7828 23.1523C11.4312 21.4488 13.9245 17.2656 14.8441 14.4H24.9333V12.96H5.86667L0 36H44L38.1333 12.96H29.3333ZM7.01213 14.4H13.3437C12.4931 16.7832 10.3855 20.0002 5.18907 21.5626L7.01213 14.4ZM1.8788 34.56L3.49507 28.2154C5.6232 28.4328 9.10507 29.016 12.4256 30.5726C11.0924 32.0803 10.1317 33.4541 9.45853 34.56H1.8788ZM11.2405 34.56C11.8844 33.6082 12.7395 32.4936 13.8321 31.2955C15.3135 32.1422 16.7097 33.2093 17.8684 34.56H11.2405ZM42.1212 34.56H31.8472C33.9563 29.3717 36.9673 25.7818 39.3257 23.5786L42.1212 34.56Z" fill="#5D70D5"/>
<path d="M26.4 25.92H27.8667V10.008C28.3844 9.93456 28.8757 9.79056 29.3333 9.57744C31.064 8.76672 32.2667 7.04736 32.2667 5.04144C32.2667 2.25648 29.9699 0 27.1333 0C24.2968 0 22 2.25648 22 5.04C22 7.04736 23.2027 8.76528 24.9333 9.576C25.3895 9.78912 25.8808 9.93312 26.4 10.0066V25.92ZM23.4667 5.04C23.4667 3.05136 25.1079 1.44 27.1333 1.44C29.1588 1.44 30.8 3.05136 30.8 5.04C30.8 7.02864 29.1588 8.64 27.1333 8.64C25.1079 8.64 23.4667 7.02864 23.4667 5.04Z" fill="#5D70D5"/>
</g>
<defs>
<clipPath id="clip0_202_3181">
<rect width="44" height="36" fill="white"/>
</clipPath>
</defs>
</svg>
