<svg width="32" height="32" viewBox="0 0 32 32" fill="none" xmlns="http://www.w3.org/2000/svg">
<path d="M16.8 23.1111H2.60114L11.6876 12.5102L15.2381 15.6978L18.7886 12.5084L21.2312 15.3582C21.7192 15.0567 22.2317 14.8125 22.7611 14.6293L20.0061 11.4151L28.9524 3.37778V15.3244C29.4939 15.6386 30.0048 16.0201 30.4762 16.4622V2.66667C30.4746 1.96 30.2332 1.28281 29.8049 0.783122C29.3766 0.283431 28.7962 0.00187695 28.1905 0H2.28571C1.68 0.00187695 1.09955 0.283431 0.671247 0.783122C0.242941 1.28281 0.00160881 1.96 0 2.66667V22.2222C0 22.9295 0.240816 23.6077 0.66947 24.1078C1.09812 24.6079 1.67951 24.8889 2.28571 24.8889H16.8C16.7771 24.5956 16.7619 24.3004 16.7619 24C16.7619 23.6996 16.7771 23.4044 16.8 23.1111ZM1.52381 21.8542V3.37956L10.4701 11.4151L1.52381 21.8542ZM28.1905 1.77778C28.2042 1.77778 28.2149 1.78667 28.2286 1.78667L15.2381 13.4578L2.24762 1.78667C2.26133 1.78667 2.272 1.77778 2.28571 1.77778H28.1905ZM25.1429 16C23.3248 16.0024 21.5819 16.846 20.2964 18.3457C19.0108 19.8455 18.2877 21.879 18.2857 24C18.2966 24.2977 18.322 24.5945 18.3619 24.8889C18.5454 26.8393 19.3383 28.6426 20.5891 29.9543C21.8399 31.266 23.461 31.9942 25.1429 32H25.9048V30.2222H25.1429C23.8636 30.2181 22.6284 29.6768 21.6631 28.6975C20.6978 27.7182 20.0669 26.3663 19.8857 24.8889C19.8419 24.5951 19.8164 24.2981 19.8095 24C19.8088 22.7749 20.1183 21.5769 20.6991 20.5563C21.2799 19.5357 22.1061 18.7379 23.0742 18.2632C24.0422 17.7884 25.1088 17.6578 26.1402 17.8877C27.1716 18.1176 28.1218 18.6979 28.8716 19.5556H27.4286V20.4676C26.7729 19.8795 25.9698 19.5591 25.1429 19.5556C24.5184 19.5535 23.9031 19.7305 23.3511 20.0711C22.7991 20.4117 22.3274 20.9053 21.9773 21.5086C21.6273 22.1119 21.4097 22.8063 21.3438 23.5308C21.2779 24.2552 21.3656 24.9874 21.5993 25.663C21.8329 26.3386 22.2053 26.9368 22.6837 27.405C23.1621 27.8732 23.7318 28.197 24.3427 28.348C24.9536 28.4989 25.5869 28.4724 26.1869 28.2706C26.787 28.0689 27.3353 27.6982 27.7836 27.1911C28.0461 27.6818 28.4384 28.0594 28.9013 28.2667C29.3641 28.474 29.8723 28.4997 30.3488 28.34C30.8253 28.1803 31.2442 27.8438 31.5422 27.3815C31.8401 26.9192 32.0008 26.3562 32 25.7778V24C31.9782 21.8861 31.2488 19.866 29.9675 18.3712C28.6863 16.8764 26.9547 16.0254 25.1429 16ZM25.1429 26.6667C24.6717 26.6649 24.2125 26.4931 23.8284 26.1748C23.4443 25.8565 23.154 25.4073 22.9973 24.8889C22.9071 24.6042 22.8597 24.3035 22.8571 24C22.8571 23.2928 23.098 22.6145 23.5266 22.1144C23.9553 21.6143 24.5366 21.3333 25.1429 21.3333C25.7491 21.3333 26.3304 21.6143 26.7591 22.1144C27.1878 22.6145 27.4286 23.2928 27.4286 24C27.426 24.3035 27.3786 24.6042 27.2884 24.8889C27.1317 25.4073 26.8414 25.8565 26.4573 26.1748C26.0732 26.4931 25.614 26.6649 25.1429 26.6667ZM30.4762 25.7778C30.4762 26.0135 30.3959 26.2396 30.253 26.4063C30.1101 26.573 29.9164 26.6667 29.7143 26.6667C29.5122 26.6667 29.3184 26.573 29.1755 26.4063C29.0327 26.2396 28.9524 26.0135 28.9524 25.7778V19.6498C29.9098 20.8257 30.4536 22.3783 30.4762 24V25.7778Z" fill="black"/>
</svg>
