<svg width="44" height="45" viewBox="0 0 44 45" fill="none" xmlns="http://www.w3.org/2000/svg">
<path d="M2.38329 3.29624L26.7483 9.51937C28.2409 9.96701 29.5586 10.8823 30.5157 12.1363C31.4728 13.3903 32.0211 14.9198 32.0833 16.5094V39.0094C32.1233 39.6936 32.0012 40.3776 31.7275 41.0033C31.4538 41.629 31.0365 42.1779 30.511 42.6034C29.9856 43.0289 29.3675 43.3185 28.7092 43.4475C28.051 43.5765 27.372 43.5411 26.73 43.3444L6.26996 38.4244C4.7754 38.0023 3.451 37.1047 2.48854 35.8614C1.52608 34.6182 0.975534 33.0939 0.916626 31.5094V7.13437C0.920978 5.6439 1.50184 4.21574 2.53235 3.16181C3.56285 2.10788 4.95927 1.51382 6.41663 1.50937H37.5833C39.0406 1.51382 40.4371 2.10788 41.4676 3.16181C42.4981 4.21574 43.0789 5.6439 43.0833 7.13437V27.7594C43.0794 29.25 42.4987 30.6784 41.4681 31.7325C40.4375 32.7865 39.0408 33.3804 37.5833 33.3844H32.0833" stroke="#5D70D5" stroke-linecap="round" stroke-linejoin="round"/>
<path d="M17.4166 7.13437H35.75" stroke="#5D70D5" stroke-linecap="round" stroke-linejoin="round"/>
<path d="M23.8333 29.6344C25.8583 29.6344 27.5 27.9554 27.5 25.8844C27.5 23.8133 25.8583 22.1344 23.8333 22.1344C21.8082 22.1344 20.1666 23.8133 20.1666 25.8844C20.1666 27.9554 21.8082 29.6344 23.8333 29.6344Z" stroke="#5D70D5" stroke-linecap="round" stroke-linejoin="round"/>
<path d="M32.0834 16.5094H35.75" stroke="#5D70D5" stroke-linecap="round" stroke-linejoin="round"/>
</svg>
