<svg width="20" height="28" viewBox="0 0 20 28" fill="none" xmlns="http://www.w3.org/2000/svg">
<path d="M15 28H5C3.67392 28 2.40215 27.4732 1.46447 26.5355C0.526784 25.5979 0 24.3261 0 23V22C0 19.6131 0.948211 17.3239 2.63604 15.636C4.32387 13.9482 6.61305 13 9 13H11C13.3869 13 15.6761 13.9482 17.364 15.636C19.0518 17.3239 20 19.6131 20 22V23C20 24.3261 19.4732 25.5979 18.5355 26.5355C17.5979 27.4732 16.3261 28 15 28ZM9 15C7.14348 15 5.36301 15.7375 4.05025 17.0503C2.7375 18.363 2 20.1435 2 22V23C2 23.7956 2.31607 24.5587 2.87868 25.1213C3.44129 25.6839 4.20435 26 5 26H15C15.7956 26 16.5587 25.6839 17.1213 25.1213C17.6839 24.5587 18 23.7956 18 23V22C18 20.1435 17.2625 18.363 15.9497 17.0503C14.637 15.7375 12.8565 15 11 15H9Z" fill="black"/>
<path d="M10 12C8.81331 12 7.65328 11.6481 6.66658 10.9888C5.67989 10.3295 4.91085 9.39246 4.45673 8.2961C4.0026 7.19975 3.88378 5.99335 4.11529 4.82946C4.3468 3.66558 4.91825 2.59648 5.75736 1.75736C6.59648 0.918247 7.66557 0.346802 8.82946 0.115291C9.99335 -0.11622 11.1997 0.00259972 12.2961 0.456726C13.3925 0.910851 14.3295 1.67989 14.9888 2.66658C15.6481 3.65328 16 4.81331 16 6C16 7.5913 15.3679 9.11742 14.2426 10.2426C13.1174 11.3679 11.5913 12 10 12ZM10 2C9.20888 2 8.43552 2.2346 7.77772 2.67412C7.11993 3.11365 6.60723 3.73836 6.30448 4.46927C6.00173 5.20017 5.92252 6.00444 6.07686 6.78036C6.2312 7.55629 6.61216 8.26902 7.17158 8.82843C7.73099 9.38784 8.44372 9.7688 9.21964 9.92314C9.99557 10.0775 10.7998 9.99827 11.5307 9.69552C12.2616 9.39277 12.8864 8.88008 13.3259 8.22228C13.7654 7.56449 14 6.79113 14 6C14 4.93914 13.5786 3.92172 12.8284 3.17158C12.0783 2.42143 11.0609 2 10 2Z" fill="black"/>
</svg>
